<svg width="65" height="65" fill="none" xmlns="http://www.w3.org/2000/svg"><g clip-path="url(#clip0_3521_5523)"><path d="M42.989 16.351c-5.292-3.528-11.457-4.517-16.914-2.714-5.537 1.83-9.786 6.183-11.966 12.259-2.018 5.627-2.001 12.14.048 18.34 1.432 4.334 3.756 8.196 6.722 11.261a1.8 1.8 0 002.516.066l4.939-4.575a1.782 1.782 0 00.079-2.55c-1.94-1.976-3.507-4.568-4.457-7.44-1.31-3.965-1.358-8.2-.132-11.617 1.084-3.021 3.033-5.133 5.49-5.945 2.456-.811 5.279-.278 7.95 1.503 3.021 2.014 5.506 5.443 6.816 9.407.95 2.873 1.236 5.888.855 8.63a1.782 1.782 0 001.584 2.002l6.692.73a1.801 1.801 0 001.981-1.551c.556-4.23.12-8.716-1.313-13.05-2.049-6.2-5.916-11.44-10.89-14.756zM17.225 35.273a2.18 2.18 0 111.368 4.139 2.18 2.18 0 01-1.368-4.139zm5.085 14.911a2.18 2.18 0 11-1.367-4.138 2.18 2.18 0 011.367 4.138zM20.262 28.21a2.179 2.179 0 11-1.367-4.138 2.179 2.179 0 011.367 4.138zm8.115-7.606a2.18 2.18 0 11-1.368-4.138 2.18 2.18 0 011.368 4.138zm11.049 1.272a2.18 2.18 0 11-1.368-4.138 2.18 2.18 0 011.368 4.138zm11.45 18.868a2.179 2.179 0 11-1.367-4.138 2.179 2.179 0 011.368 4.138zm-3.434-10.867a2.178 2.178 0 11-1.368-4.137 2.178 2.178 0 011.368 4.137z" fill="#0C4E42"/></g><defs><clipPath id="clip0_3521_5523"><path fill="#fff" transform="rotate(-18.289 49.711 8.002)" d="M0 0h51v51H0z"/></clipPath></defs></svg>