<svg fill="#0C4E42" xmlns="http://www.w3.org/2000/svg" width="24" height="24"><path d="M20.303 2.984a2.437 2.437 0 00-.787.188c-.216.085-.988.41-2.22.926l-4.599 1.931C9.221 7.491 5.314 9.136 3.313 9.98c-.07.028-.348.114-.657.35-.309.235-.652.747-.652 1.308 0 .452.226.912.498 1.175.272.264.548.387.78.479l3.667 1.465c.318.952 1.064 3.194 1.239 3.746h-.002c.142.45.28.742.472.986a1.168 1.168 0 00.526.405l.025.007-.023-.005c.017.007.033.017.05.023.03.01.05.01.088.018.137.042.274.07.4.07.544 0 .878-.295.878-.295l.021-.016 2.348-1.986 2.875 2.658c.051.073.462.631 1.416.631.568 0 1.019-.28 1.306-.574.288-.295.467-.597.547-1.006v-.006c.056-.29 2.817-14.146 2.817-14.146l-.006.023c.085-.382.11-.752.01-1.129a1.62 1.62 0 00-.704-.937 1.65 1.65 0 00-.93-.239zm-.395 2.19c-.108.544-2.565 12.886-2.724 13.705l-2.856-2.639a2.012 2.012 0 00-2.648-.058l-1.457 1.232.777-3.039s5.363-5.428 5.686-5.744c.26-.253.314-.342.314-.43 0-.117-.06-.201-.2-.201-.124 0-.294.12-.384.176-1.148.716-6.066 3.518-8.447 4.873-.09-.054-.178-.11-.276-.149l-3.162-1.265a44934.035 44934.035 0 0113.54-5.694c1.037-.435 1.579-.66 1.837-.767zm-2.756 13.85h.002l-.002.007c.002-.008 0-.001 0-.008z"/></svg>